<svg version="1.1" id="Layer_1" xmlns="http://www.w3.org/2000/svg" xmlns:xlink="http://www.w3.org/1999/xlink" x="0px" y="0px"
	 width="100%" viewBox="0 0 668 374" enable-background="new 0 0 668 374" xml:space="preserve">
<path fill="#000000" opacity="1.000000" stroke="none" 
	d="
M455.000000,375.000000 
	C303.369568,375.000000 152.239151,375.000000 1.054359,375.000000 
	C1.054359,250.399475 1.054359,125.798927 1.054359,1.099188 
	C223.547119,1.099188 446.094299,1.099188 668.820740,1.099188 
	C668.820740,125.666458 668.820740,250.333206 668.820740,375.000000 
	C597.798889,375.000000 526.649414,375.000000 455.000000,375.000000 
M392.456238,212.622330 
	C393.295776,211.132858 394.135345,209.643387 395.600983,207.767410 
	C396.244690,205.196854 396.888367,202.626312 397.739227,199.201691 
	C397.687531,197.449509 397.635803,195.697327 397.786591,193.336151 
	C397.720917,192.918854 397.655273,192.501572 397.762451,191.206604 
	C397.700989,189.127335 397.639557,187.048050 397.744507,184.510773 
	C397.744507,184.510773 397.579956,184.052094 397.755432,183.355545 
	C397.697266,182.883850 397.639099,182.412170 397.783264,181.152573 
	C397.715668,179.808701 397.648071,178.464828 397.748016,176.185272 
	C397.696655,171.412598 397.645294,166.639908 397.755402,161.523666 
	C397.755402,161.523666 397.594147,161.179993 397.775696,160.359146 
	C397.720886,159.524353 397.666077,158.689545 397.776123,157.496429 
	C397.776123,157.496429 397.617096,157.135483 397.785706,156.397537 
	C397.725830,155.899719 397.665985,155.401917 397.810486,154.235779 
	C397.529144,153.200912 397.247833,152.166031 396.897583,150.366028 
	C393.003235,137.910202 385.566162,132.656006 371.309784,134.035233 
	C370.855194,134.089706 370.400574,134.144196 369.104675,134.045578 
	C360.746216,134.329544 352.387787,134.613525 343.555756,134.196274 
	C339.730774,134.207550 335.905762,134.218811 331.373108,134.085358 
	C330.895630,134.128830 330.418121,134.172318 329.114777,134.045593 
	C327.430420,134.106827 325.746094,134.168076 323.377716,134.102295 
	C322.918671,134.149765 322.459625,134.197235 321.223694,134.068954 
	C320.168121,134.113449 319.112579,134.157928 317.300690,134.077713 
	C316.535797,134.034882 315.770874,133.992050 314.531494,133.231506 
	C304.149567,133.577316 293.568207,131.615005 283.587921,136.002609 
	C283.587921,136.002609 283.738647,135.874359 283.289795,136.195374 
	C283.203400,136.357758 283.116974,136.520142 282.411774,136.696350 
	C277.853424,140.621979 273.853027,144.912079 272.468750,151.355667 
	C272.473724,151.802353 272.478699,152.249054 272.304016,153.599060 
	C272.384613,155.428085 272.465210,157.257111 272.313995,159.976471 
	C272.359802,168.303253 272.405579,176.630051 272.222137,185.872040 
	C272.212952,190.816711 271.752655,195.812927 272.310425,200.692795 
	C272.985474,206.598648 275.067200,212.075119 281.055420,215.777100 
	C283.878510,220.703415 288.946991,220.051544 293.393524,220.431335 
	C298.104401,220.833710 302.876251,220.521698 308.106873,220.521698 
	C308.106873,229.469696 308.106873,237.511948 308.106873,246.139999 
	C309.932343,245.414459 311.271790,245.157852 312.279358,244.437256 
	C319.263031,239.442657 326.336853,234.553146 333.070984,229.236313 
	C340.204224,223.604370 347.247040,218.930695 357.175415,219.871445 
	C365.374512,220.648361 373.753418,220.155853 381.993286,219.490646 
	C384.457184,219.291733 386.721252,216.617310 389.718170,214.978882 
	C390.426880,214.274948 391.135590,213.571014 392.456238,212.622330 
z"/>
<path fill="#7989F8" opacity="1.000000" stroke="none" 
	d="
M272.929565,151.212128 
	C273.853027,144.912079 277.853424,140.621979 282.800964,136.974731 
	C282.708649,139.358932 282.227142,141.464737 281.721863,143.674622 
	C284.219208,144.796799 287.113220,145.574097 289.367218,147.225113 
	C293.360809,150.150391 296.756256,153.897934 300.773651,156.784012 
	C311.358429,164.388092 321.935059,172.045654 332.965515,178.963425 
	C336.598938,181.242126 339.444000,186.620651 345.185669,184.578186 
	C345.003632,185.894119 344.885864,186.856461 344.440155,187.972504 
	C339.280182,191.517075 333.734436,190.849503 328.276215,191.222565 
	C324.426056,191.485733 320.655182,192.956451 316.857330,193.920990 
	C314.220886,194.590561 311.598633,195.316193 309.036987,195.680466 
	C308.606812,193.598221 308.660553,191.235352 307.516571,190.213913 
	C302.737946,185.947113 297.955750,181.492065 292.509521,178.210159 
	C284.322723,173.276779 277.253357,167.499924 272.545807,159.086136 
	C272.465210,157.257111 272.384613,155.428085 272.555267,153.018372 
	C272.847534,152.029160 272.888550,151.620636 272.929565,151.212128 
z"/>
<path fill="#5CB2FA" opacity="1.000000" stroke="none" 
	d="
M371.999084,134.047348 
	C385.566162,132.656006 393.003235,137.910202 396.924927,151.074585 
	C397.170227,152.823471 397.388184,153.863785 397.606140,154.904099 
	C397.665985,155.401917 397.725830,155.899719 397.619873,156.840302 
	C397.355042,157.513611 397.407440,157.704163 397.611267,157.854752 
	C397.666077,158.689545 397.720886,159.524353 397.604584,160.837204 
	C397.342957,161.539276 397.396454,161.723267 397.593933,161.867233 
	C397.645294,166.639908 397.696655,171.412598 397.513184,176.927032 
	C397.379211,179.092697 397.480072,180.516586 397.580933,181.940475 
	C397.639099,182.412170 397.697266,182.883850 397.578674,183.803391 
	C397.297333,184.527542 397.356079,184.766724 397.578125,184.968781 
	C397.639557,187.048050 397.700989,189.127335 397.548553,191.810272 
	C397.417816,192.924362 397.500946,193.434753 397.584106,193.945145 
	C397.635803,195.697327 397.687531,197.449509 397.451111,199.733398 
	C396.796936,200.477432 396.430817,200.689758 396.053528,200.444885 
	C396.030731,196.336655 395.877136,192.678894 396.049896,189.036606 
	C396.203522,185.797333 395.479553,183.848236 392.173462,182.064926 
	C388.648041,180.163315 384.392609,177.031403 383.373474,173.576065 
	C380.830048,164.952682 376.650848,160.783539 367.894775,161.106720 
	C367.961304,161.026016 367.822083,161.191177 367.804108,160.836395 
	C365.938629,157.336731 364.091156,154.191833 362.170593,150.608047 
	C362.031982,148.689911 361.966400,147.210663 361.662537,145.580948 
	C360.598389,146.203857 359.772522,146.977219 358.954895,147.850311 
	C358.963135,147.950027 358.763489,147.963821 358.442932,148.099518 
	C357.422699,149.817871 356.935791,151.550125 355.959686,152.938400 
	C355.094849,154.168427 353.686096,155.016006 352.417450,155.685669 
	C352.324463,154.858749 352.331512,154.378555 352.496643,153.592163 
	C352.559052,150.859375 352.463409,148.432816 352.179962,145.694931 
	C351.542114,145.250336 351.092072,145.117050 350.511292,145.055771 
	C350.213623,145.242966 350.075958,145.386261 349.907898,145.714691 
	C349.848236,145.871735 349.518524,145.936508 349.262726,146.062195 
	C348.647583,147.036682 348.288239,147.885483 347.982788,148.818298 
	C348.036652,148.902328 347.875153,149.019684 347.614685,149.212067 
	C346.573883,150.957916 345.793610,152.511414 344.688538,153.958466 
	C343.154755,152.759232 342.040863,151.532059 340.720154,150.596985 
	C335.109344,146.624359 329.376373,142.820877 323.843048,138.745193 
	C322.838562,138.005325 322.559418,136.280777 321.967957,134.819885 
	C321.990479,134.628998 322.000580,134.244705 322.000580,134.244705 
	C322.459625,134.197235 322.918671,134.149765 324.014160,134.340637 
	C326.413940,134.457916 328.177307,134.336853 329.940643,134.215790 
	C330.418121,134.172318 330.895630,134.128830 332.077454,134.346207 
	C336.531006,134.703857 340.280151,134.800674 344.029327,134.897491 
	C352.387787,134.613525 360.746216,134.329544 369.288513,134.405899 
	C366.432587,135.490952 363.392792,136.215698 359.421692,137.162476 
	C366.043610,142.266785 371.513153,147.385300 377.818939,151.074341 
	C383.450012,154.368668 387.635803,160.710602 395.867554,160.261841 
	C395.587250,157.801132 395.255005,155.420868 395.054504,153.029541 
	C394.276489,143.750778 388.010956,137.225098 378.666046,135.812332 
	C376.406433,135.470734 374.219452,134.648544 371.999084,134.047348 
z"/>
<path fill="#689FF9" opacity="1.000000" stroke="none" 
	d="
M321.945435,135.010788 
	C322.559418,136.280777 322.838562,138.005325 323.843048,138.745193 
	C329.376373,142.820877 335.109344,146.624359 340.720154,150.596985 
	C342.040863,151.532059 343.154755,152.759232 344.689941,154.387268 
	C345.016113,161.702408 345.016113,168.482315 345.016113,175.892593 
	C327.700012,163.991486 311.474792,152.840118 294.549561,141.207642 
	C294.404602,140.125732 294.109528,137.923325 293.717926,135.000320 
	C296.720703,135.000320 299.498596,135.126419 302.260651,134.971085 
	C306.514801,134.731827 310.758087,134.299576 315.005981,133.949203 
	C315.770874,133.992050 316.535797,134.034882 317.963135,134.318176 
	C319.732208,134.709351 320.838806,134.860062 321.945435,135.010788 
z"/>
<path fill="#8867D1" opacity="1.000000" stroke="none" 
	d="
M308.970062,196.016785 
	C311.598633,195.316193 314.220886,194.590561 316.857330,193.920990 
	C320.655182,192.956451 324.426056,191.485733 328.276215,191.222565 
	C333.734436,190.849503 339.280182,191.517075 344.510620,188.023956 
	C344.909027,187.921677 345.045776,188.028427 344.994751,188.382416 
	C342.119629,190.051910 339.405396,192.050537 336.446289,192.526459 
	C331.737244,193.283813 326.689026,192.294357 322.109100,193.395126 
	C317.113281,194.595810 312.487396,197.335632 307.701416,199.404007 
	C307.921692,199.567856 308.868073,200.864334 309.894012,200.930664 
	C313.973572,201.194427 314.635773,203.561203 314.453461,206.992035 
	C314.206787,211.633835 314.195465,216.289673 314.149719,220.940140 
	C314.103821,225.607559 314.139648,230.275772 314.139648,235.734589 
	C320.373016,230.950653 325.756653,227.009140 330.926941,222.805237 
	C338.261841,216.841339 346.317749,213.528641 355.945862,214.968903 
	C357.411224,215.188095 358.959473,214.833130 360.432343,215.026108 
	C363.652466,215.448029 364.956940,213.969620 365.186920,210.915146 
	C365.508118,206.648605 365.998871,202.394852 366.720459,198.286682 
	C367.315338,200.639389 367.606903,202.841034 367.881958,205.449783 
	C367.721100,206.835632 367.622040,207.823563 367.425476,208.791702 
	C365.209808,219.704437 366.306641,220.756012 377.753998,218.685394 
	C379.053406,218.450348 380.499451,218.547119 381.631439,217.990051 
	C382.960510,217.336029 384.020660,216.135529 385.565247,215.170807 
	C386.905212,215.054871 387.877411,214.940170 388.906128,214.888641 
	C388.962646,214.951797 389.076874,215.077057 389.076874,215.077057 
	C386.721252,216.617310 384.457184,219.291733 381.993286,219.490646 
	C373.753418,220.155853 365.374512,220.648361 357.175415,219.871445 
	C347.247040,218.930695 340.204224,223.604370 333.070984,229.236313 
	C326.336853,234.553146 319.263031,239.442657 312.279358,244.437256 
	C311.271790,245.157852 309.932343,245.414459 308.106873,246.139999 
	C308.106873,237.511948 308.106873,229.469696 308.106873,220.521698 
	C302.876251,220.521698 298.104401,220.833710 293.393524,220.431335 
	C288.946991,220.051544 283.878510,220.703415 281.081848,215.337036 
	C281.108307,214.896973 281.298950,214.713333 281.627045,214.873550 
	C287.924927,216.049911 293.879761,217.168274 299.869995,218.044708 
	C303.592010,218.589294 307.367645,218.767395 311.612610,219.155029 
	C311.679962,218.341278 311.969208,216.266861 312.000763,214.188522 
	C312.081360,208.881195 312.534637,203.451904 306.179474,200.774155 
	C305.132599,200.333069 304.738434,198.342987 304.374512,196.920044 
	C306.127655,196.519806 307.548859,196.268295 308.970062,196.016785 
z"/>
<path fill="#6D96F5" opacity="1.000000" stroke="none" 
	d="
M314.768738,133.590363 
	C310.758087,134.299576 306.514801,134.731827 302.260651,134.971085 
	C299.498596,135.126419 296.720703,135.000320 293.717926,135.000320 
	C294.109528,137.923325 294.404602,140.125732 294.549561,141.207642 
	C311.474792,152.840118 327.700012,163.991486 345.016113,175.892593 
	C345.016113,168.482315 345.016113,161.702408 345.014709,154.493698 
	C345.793610,152.511414 346.573883,150.957916 347.624146,149.672302 
	C347.720581,151.912994 347.456390,153.882721 347.388977,155.859177 
	C347.067169,165.292221 346.798798,174.727112 346.299683,184.134064 
	C345.804718,184.118317 345.525360,184.157578 345.249939,184.224564 
	C339.444000,186.620651 336.598938,181.242126 332.965515,178.963425 
	C321.935059,172.045654 311.358429,164.388092 300.773651,156.784012 
	C296.756256,153.897934 293.360809,150.150391 289.367218,147.225113 
	C287.113220,145.574097 284.219208,144.796799 281.721863,143.674622 
	C282.227142,141.464737 282.708649,139.358932 283.110352,136.967834 
	C283.116974,136.520142 283.203400,136.357758 283.482788,136.054596 
	C283.675751,135.913834 283.527435,135.909943 283.527435,135.909943 
	C293.568207,131.615005 304.149567,133.577316 314.768738,133.590363 
z"/>
<path fill="#54C4FB" opacity="1.000000" stroke="none" 
	d="
M371.654419,134.041290 
	C374.219452,134.648544 376.406433,135.470734 378.666046,135.812332 
	C388.010956,137.225098 394.276489,143.750778 395.054504,153.029541 
	C395.255005,155.420868 395.587250,157.801132 395.867554,160.261841 
	C387.635803,160.710602 383.450012,154.368668 377.818939,151.074341 
	C371.513153,147.385300 366.043610,142.266785 359.421692,137.162476 
	C363.392792,136.215698 366.432587,135.490952 369.709167,134.482452 
	C370.400574,134.144196 370.855194,134.089706 371.654419,134.041290 
z"/>
<path fill="#8878FB" opacity="1.000000" stroke="none" 
	d="
M309.036987,195.680481 
	C307.548859,196.268295 306.127655,196.519806 303.999939,196.885864 
	C296.285950,191.931061 289.309570,186.817825 282.249512,181.822815 
	C280.459229,180.556198 278.402557,179.666107 276.468262,178.602997 
	C275.637695,180.755859 274.807129,182.908737 273.722382,185.033875 
	C273.129272,184.989700 272.790314,184.973267 272.451355,184.956833 
	C272.405579,176.630051 272.359802,168.303253 272.429901,159.531311 
	C277.253357,167.499924 284.322723,173.276779 292.509521,178.210159 
	C297.955750,181.492065 302.737946,185.947113 307.516571,190.213913 
	C308.660553,191.235352 308.606812,193.598221 309.036987,195.680481 
z"/>
<path fill="#8867D1" opacity="1.000000" stroke="none" 
	d="
M272.336731,185.414429 
	C272.790314,184.973267 273.129272,184.989700 273.717590,185.493896 
	C273.971497,193.021942 273.153931,200.179733 276.725647,206.734802 
	C278.191986,209.425980 279.771118,212.055664 281.298950,214.713333 
	C281.298950,214.713333 281.108307,214.896973 281.013092,214.988892 
	C275.067200,212.075119 272.985474,206.598648 272.310425,200.692795 
	C271.752655,195.812927 272.212952,190.816711 272.336731,185.414429 
z"/>
<path fill="#6D96F5" opacity="1.000000" stroke="none" 
	d="
M396.064697,200.902069 
	C396.430817,200.689758 396.796936,200.477432 397.347534,200.160431 
	C396.888367,202.626312 396.244690,205.196854 394.991943,207.954620 
	C393.985748,208.140167 393.588654,208.138504 393.139526,207.751480 
	C394.079895,205.211441 395.072296,203.056763 396.064697,200.902069 
z"/>
<path fill="#6D96F5" opacity="1.000000" stroke="none" 
	d="
M343.792542,134.546875 
	C340.280151,134.800674 336.531006,134.703857 332.431305,134.418564 
	C335.905762,134.218811 339.730774,134.207550 343.792542,134.546875 
z"/>
<path fill="#8867D1" opacity="1.000000" stroke="none" 
	d="
M393.191528,208.136841 
	C393.588654,208.138504 393.985748,208.140167 394.678894,208.147873 
	C394.135345,209.643387 393.295776,211.132858 392.097168,212.684845 
	C391.738068,212.747360 391.626343,212.632736 391.750977,212.317688 
	C392.279724,210.709290 392.683838,209.415924 393.113007,208.132355 
	C393.138062,208.142151 393.191528,208.136841 393.191528,208.136841 
z"/>
<path fill="#6D96F5" opacity="1.000000" stroke="none" 
	d="
M329.527710,134.130692 
	C328.177307,134.336853 326.413940,134.457916 324.356171,134.404144 
	C325.746094,134.168076 327.430420,134.106827 329.527710,134.130692 
z"/>
<path fill="#8867D1" opacity="1.000000" stroke="none" 
	d="
M391.791199,212.807220 
	C391.135590,213.571014 390.426880,214.274948 389.397522,215.027969 
	C389.076874,215.077057 388.962646,214.951797 389.055603,214.623993 
	C389.974518,213.741714 390.800415,213.187225 391.626343,212.632736 
	C391.626343,212.632736 391.738068,212.747360 391.791199,212.807220 
z"/>
<path fill="#6D96F5" opacity="1.000000" stroke="none" 
	d="
M397.682098,181.546524 
	C397.480072,180.516586 397.379211,179.092697 397.429382,177.394882 
	C397.648071,178.464828 397.715668,179.808701 397.682098,181.546524 
z"/>
<path fill="#6D96F5" opacity="1.000000" stroke="none" 
	d="
M321.967957,134.819885 
	C320.838806,134.860062 319.732208,134.709351 318.341309,134.380524 
	C319.112579,134.157928 320.168121,134.113449 321.612122,134.156830 
	C322.000580,134.244705 321.990479,134.628998 321.967957,134.819885 
z"/>
<path fill="#6D96F5" opacity="1.000000" stroke="none" 
	d="
M397.708313,154.569946 
	C397.388184,153.863785 397.170227,152.823471 396.959381,151.457153 
	C397.247833,152.166031 397.529144,153.200912 397.708313,154.569946 
z"/>
<path fill="#6D96F5" opacity="1.000000" stroke="none" 
	d="
M397.685333,193.640656 
	C397.500946,193.434753 397.417816,192.924362 397.462128,192.249115 
	C397.655273,192.501572 397.720917,192.918854 397.685333,193.640656 
z"/>
<path fill="#8867D1" opacity="1.000000" stroke="none" 
	d="
M272.699158,151.283905 
	C272.888550,151.620636 272.847534,152.029160 272.645081,152.566711 
	C272.478699,152.249054 272.473724,151.802353 272.699158,151.283905 
z"/>
<path fill="#6D96F5" opacity="1.000000" stroke="none" 
	d="
M397.674683,161.695450 
	C397.396454,161.723267 397.342957,161.539276 397.513794,161.247620 
	C397.594147,161.179993 397.755402,161.523666 397.674683,161.695450 
z"/>
<path fill="#6D96F5" opacity="1.000000" stroke="none" 
	d="
M397.661316,184.739777 
	C397.356079,184.766724 397.297333,184.527542 397.490906,184.151672 
	C397.579956,184.052094 397.744507,184.510773 397.661316,184.739777 
z"/>
<path fill="#6D96F5" opacity="1.000000" stroke="none" 
	d="
M397.693695,157.675598 
	C397.407440,157.704163 397.355042,157.513611 397.535583,157.209274 
	C397.617096,157.135483 397.776123,157.496429 397.693695,157.675598 
z"/>
<path fill="#7989F8" opacity="1.000000" stroke="none" 
	d="
M283.557678,135.956268 
	C283.527435,135.909943 283.675751,135.913834 283.707214,135.894104 
	C283.738647,135.874359 283.587921,136.002609 283.557678,135.956268 
z"/>
<path fill="#8867D1" opacity="1.000000" stroke="none" 
	d="
M345.185669,184.578186 
	C345.525360,184.157578 345.804718,184.118317 346.298645,184.429657 
	C346.021484,185.844482 345.533630,186.936447 345.045776,188.028427 
	C345.045776,188.028427 344.909027,187.921677 344.838562,187.870239 
	C344.885864,186.856461 345.003632,185.894119 345.185669,184.578186 
z"/>
<path fill="#000102" opacity="1.000000" stroke="none" 
	d="
M344.994751,188.382416 
	C345.533630,186.936447 346.021484,185.844482 346.510376,184.456924 
	C346.798798,174.727112 347.067169,165.292221 347.388977,155.859177 
	C347.456390,153.882721 347.720581,151.912994 347.884613,149.479919 
	C347.875153,149.019684 348.036652,148.902328 348.180847,148.632568 
	C348.722870,147.554047 349.120697,146.745285 349.518524,145.936508 
	C349.518524,145.936508 349.848236,145.871735 350.082275,145.714432 
	C350.557587,145.441391 350.666168,145.250259 350.642059,144.983749 
	C351.092072,145.117050 351.542114,145.250336 352.105774,146.070145 
	C352.259155,149.137238 352.298859,151.517807 352.338562,153.898376 
	C352.331512,154.378555 352.324463,154.858749 352.361633,156.035828 
	C354.048157,157.125565 355.690460,157.518417 357.295624,157.902374 
	C357.875702,153.974670 358.319611,150.969254 358.763489,147.963821 
	C358.763489,147.963821 358.963135,147.950027 359.247375,147.759079 
	C360.321381,146.955887 361.111084,146.343658 361.900818,145.731415 
	C361.966400,147.210663 362.031982,148.689911 362.086273,151.028397 
	C361.397766,156.590546 362.188354,160.386749 367.822083,161.191177 
	C367.822083,161.191177 367.961304,161.026016 368.117371,161.377014 
	C370.942596,162.937042 374.079681,163.627625 376.152039,165.497925 
	C378.313599,167.448685 379.870056,170.400101 380.779480,173.209137 
	C381.056274,174.064148 378.313324,175.896805 376.656982,177.165771 
	C376.148773,177.036850 375.936981,177.023849 375.603210,176.807297 
	C374.919617,176.675247 374.358032,176.746750 373.357971,176.713409 
	C366.140869,176.434830 365.864227,176.806625 366.313538,185.570343 
	C366.264557,186.121658 366.322052,186.445694 366.301636,187.237244 
	C366.288208,191.181717 366.352631,194.658661 366.417084,198.135620 
	C365.998871,202.394852 365.508118,206.648605 365.186920,210.915146 
	C364.956940,213.969620 363.652466,215.448029 360.432343,215.026108 
	C358.959473,214.833130 357.411224,215.188095 355.945862,214.968903 
	C346.317749,213.528641 338.261841,216.841339 330.926941,222.805237 
	C325.756653,227.009140 320.373016,230.950653 314.139648,235.734589 
	C314.139648,230.275772 314.103821,225.607559 314.149719,220.940140 
	C314.195465,216.289673 314.206787,211.633835 314.453461,206.992035 
	C314.635773,203.561203 313.973572,201.194427 309.894012,200.930664 
	C308.868073,200.864334 307.921692,199.567856 307.701416,199.404007 
	C312.487396,197.335632 317.113281,194.595810 322.109100,193.395126 
	C326.689026,192.294357 331.737244,193.283813 336.446289,192.526459 
	C339.405396,192.050537 342.119629,190.051910 344.994751,188.382416 
z"/>
<path fill="#689FF9" opacity="1.000000" stroke="none" 
	d="
M376.953400,177.281708 
	C378.313324,175.896805 381.056274,174.064148 380.779480,173.209137 
	C379.870056,170.400101 378.313599,167.448685 376.152039,165.497925 
	C374.079681,163.627625 370.942596,162.937042 368.050812,161.457703 
	C376.650848,160.783539 380.830048,164.952682 383.373474,173.576065 
	C384.392609,177.031403 388.648041,180.163315 392.173462,182.064926 
	C395.479553,183.848236 396.203522,185.797333 396.049896,189.036606 
	C395.877136,192.678894 396.030731,196.336655 396.053528,200.444885 
	C395.072296,203.056763 394.079895,205.211441 393.139526,207.751480 
	C393.191528,208.136841 393.138062,208.142151 392.737854,208.077911 
	C391.540955,207.810638 390.584442,207.823959 389.972076,207.371506 
	C382.965363,202.194565 375.994324,196.968475 369.073914,191.676880 
	C368.515472,191.249863 368.118835,190.239990 368.127167,189.506409 
	C368.166046,186.064880 367.663544,182.346375 368.854584,179.316528 
	C369.360321,178.029999 373.543762,178.196320 376.051331,177.680618 
	C376.366058,177.615891 376.653381,177.417953 376.953400,177.281708 
z"/>
<path fill="#6D96F5" opacity="1.000000" stroke="none" 
	d="
M358.442932,148.099518 
	C358.319611,150.969254 357.875702,153.974670 357.295624,157.902374 
	C355.690460,157.518417 354.048157,157.125565 352.461670,156.382568 
	C353.686096,155.016006 355.094849,154.168427 355.959686,152.938400 
	C356.935791,151.550125 357.422699,149.817871 358.442932,148.099518 
z"/>
<path fill="#689FF9" opacity="1.000000" stroke="none" 
	d="
M367.804108,160.836395 
	C362.188354,160.386749 361.397766,156.590546 362.159302,151.467285 
	C364.091156,154.191833 365.938629,157.336731 367.804108,160.836395 
z"/>
<path fill="#6D96F5" opacity="1.000000" stroke="none" 
	d="
M352.496643,153.592163 
	C352.298859,151.517807 352.259155,149.137238 352.293640,146.381454 
	C352.463409,148.432816 352.559052,150.859375 352.496643,153.592163 
z"/>
<path fill="#6D96F5" opacity="1.000000" stroke="none" 
	d="
M361.662537,145.580948 
	C361.111084,146.343658 360.321381,146.955887 359.239166,147.659363 
	C359.772522,146.977219 360.598389,146.203857 361.662537,145.580948 
z"/>
<path fill="#6D96F5" opacity="1.000000" stroke="none" 
	d="
M349.262726,146.062195 
	C349.120697,146.745285 348.722870,147.554047 348.126953,148.548553 
	C348.288239,147.885483 348.647583,147.036682 349.262726,146.062195 
z"/>
<path fill="#6D96F5" opacity="1.000000" stroke="none" 
	d="
M350.511292,145.055771 
	C350.666168,145.250259 350.557587,145.441391 350.141907,145.557388 
	C350.075958,145.386261 350.213623,145.242966 350.511292,145.055771 
z"/>
<path fill="#9A67FA" opacity="1.000000" stroke="none" 
	d="
M281.627045,214.873550 
	C279.771118,212.055664 278.191986,209.425980 276.725647,206.734802 
	C273.153931,200.179733 273.971497,193.021942 273.971741,185.521637 
	C274.807129,182.908737 275.637695,180.755859 276.468262,178.602997 
	C278.402557,179.666107 280.459229,180.556198 282.249512,181.822815 
	C289.309570,186.817825 296.285950,191.931061 303.667999,197.034607 
	C304.738434,198.342987 305.132599,200.333069 306.179474,200.774155 
	C312.534637,203.451904 312.081360,208.881195 312.000763,214.188522 
	C311.969208,216.266861 311.679962,218.341278 311.612610,219.155029 
	C307.367645,218.767395 303.592010,218.589294 299.869995,218.044708 
	C293.879761,217.168274 287.924927,216.049911 281.627045,214.873550 
z"/>
<path fill="#6D96F5" opacity="1.000000" stroke="none" 
	d="
M376.656982,177.165802 
	C376.653381,177.417953 376.366058,177.615891 376.051331,177.680618 
	C373.543762,178.196320 369.360321,178.029999 368.854584,179.316528 
	C367.663544,182.346375 368.166046,186.064880 368.127167,189.506409 
	C368.118835,190.239990 368.515472,191.249863 369.073914,191.676880 
	C375.994324,196.968475 382.965363,202.194565 389.972076,207.371506 
	C390.584442,207.823959 391.540955,207.810638 392.712769,208.068115 
	C392.683838,209.415924 392.279724,210.709290 391.750977,212.317688 
	C390.800415,213.187225 389.974518,213.741714 388.999084,214.560837 
	C387.877411,214.940170 386.905212,215.054871 385.230835,214.993530 
	C382.833679,213.883530 381.112030,212.994415 379.449066,212.006561 
	C375.583801,209.710587 371.746857,207.366989 367.898438,205.042679 
	C367.606903,202.841034 367.315338,200.639389 366.720459,198.286682 
	C366.352631,194.658661 366.288208,191.181717 366.441406,187.129532 
	C366.709076,186.409012 366.831085,186.241562 366.794586,186.122879 
	C366.710754,185.850311 366.549713,185.601517 366.420013,185.343079 
	C365.864227,176.806625 366.140869,176.434830 373.528046,176.770142 
	C374.666168,176.958084 375.195679,176.984451 375.725220,177.010834 
	C375.936981,177.023849 376.148773,177.036850 376.656982,177.165802 
z"/>
<path fill="#7989F8" opacity="1.000000" stroke="none" 
	d="
M367.881958,205.449783 
	C371.746857,207.366989 375.583801,209.710587 379.449066,212.006561 
	C381.112030,212.994415 382.833679,213.883530 384.863037,214.994766 
	C384.020660,216.135529 382.960510,217.336029 381.631439,217.990051 
	C380.499451,218.547119 379.053406,218.450348 377.753998,218.685394 
	C366.306641,220.756012 365.209808,219.704437 367.425476,208.791702 
	C367.622040,207.823563 367.721100,206.835632 367.881958,205.449783 
z"/>
<path fill="#689FF9" opacity="1.000000" stroke="none" 
	d="
M375.603210,176.807297 
	C375.195679,176.984451 374.666168,176.958084 373.966553,176.874985 
	C374.358032,176.746750 374.919617,176.675247 375.603210,176.807297 
z"/>
<path fill="#8867D1" opacity="1.000000" stroke="none" 
	d="
M366.313538,185.570343 
	C366.549713,185.601517 366.710754,185.850311 366.794586,186.122879 
	C366.831085,186.241562 366.709076,186.409012 366.519287,186.662018 
	C366.322052,186.445694 366.264557,186.121658 366.313538,185.570343 
z"/>
</svg>